<svg width="265" height="63" viewBox="0 0 265 63" fill="none" xmlns="http://www.w3.org/2000/svg">
<path d="M138.8 24.736C139.6 24.736 140.304 24.52 140.912 24.088C141.536 23.656 141.848 23.008 141.848 22.144C141.848 21.264 141.512 20.592 140.84 20.128C140.184 19.664 139.24 19.264 138.008 18.928C136.792 18.576 135.904 18.272 135.344 18.016C134.8 17.76 134.28 17.424 133.784 17.008C132.792 16.176 132.296 14.888 132.296 13.144C132.296 11.72 132.8 10.496 133.808 9.472C134.832 8.448 136.224 7.936 137.984 7.936C138.832 7.936 139.712 8.064 140.624 8.32C141.552 8.56 142.128 8.68 142.352 8.68C142.576 8.68 142.776 8.52 142.952 8.2H143.216L143.384 13.048H143C142.232 11.656 141.424 10.544 140.576 9.712C139.744 8.864 138.832 8.44 137.84 8.44C136.864 8.44 136.104 8.672 135.56 9.136C135.016 9.584 134.744 10.192 134.744 10.96C134.744 11.712 135.064 12.296 135.704 12.712C136.36 13.112 137.16 13.44 138.104 13.696C139.048 13.952 139.664 14.128 139.952 14.224C140.256 14.32 140.624 14.456 141.056 14.632C141.504 14.792 141.864 14.968 142.136 15.16C142.424 15.336 142.72 15.568 143.024 15.856C143.344 16.128 143.592 16.432 143.768 16.768C144.2 17.536 144.416 18.448 144.416 19.504C144.416 21.232 143.872 22.624 142.784 23.68C141.712 24.72 140.296 25.24 138.536 25.24C137.624 25.24 136.576 25.12 135.392 24.88C134.224 24.64 133.576 24.52 133.448 24.52C133.224 24.52 133.008 24.76 132.8 25.24H132.464L132.224 19.528H132.632C133.336 20.92 134.232 22.136 135.32 23.176C136.424 24.216 137.584 24.736 138.8 24.736ZM151.943 25.24C149.879 25.24 148.327 24.712 147.287 23.656C146.263 22.584 145.751 21.104 145.751 19.216C145.751 17.312 146.327 15.856 147.479 14.848C148.647 13.84 150.127 13.336 151.919 13.336C155.551 13.336 157.295 15.16 157.151 18.808H150.383V19.744C150.383 21.312 150.583 22.496 150.983 23.296C151.383 24.096 152.079 24.496 153.071 24.496C154.927 24.496 156.143 23.504 156.719 21.52L157.151 21.592C156.847 22.744 156.295 23.64 155.495 24.28C154.711 24.92 153.527 25.24 151.943 25.24ZM150.407 18.328H152.879V17.152C152.879 15.856 152.799 14.976 152.639 14.512C152.495 14.032 152.191 13.792 151.727 13.792C151.279 13.792 150.943 14.048 150.719 14.56C150.511 15.056 150.407 15.92 150.407 17.152V18.328ZM166.022 14.248C165.43 14.248 164.91 14.632 164.462 15.4C164.014 16.168 163.79 17.08 163.79 18.136V24.568H165.494V25H158.006V24.568H159.326V14.008H158.006V13.576H163.79V15.88C163.998 15.064 164.398 14.44 164.99 14.008C165.582 13.56 166.254 13.336 167.006 13.336C167.758 13.336 168.366 13.552 168.83 13.984C169.31 14.4 169.55 15 169.55 15.784C169.55 16.552 169.374 17.144 169.022 17.56C168.67 17.976 168.126 18.184 167.39 18.184C166.67 18.184 166.134 17.944 165.782 17.464C165.446 16.984 165.406 16.32 165.662 15.472H166.526C166.926 14.656 166.758 14.248 166.022 14.248ZM171.088 21.568V14.008H169.768V13.576H171.088V10.48L175.552 9.376V13.576H178.672V14.008H175.552V22.096C175.552 22.848 175.624 23.4 175.768 23.752C175.928 24.104 176.248 24.28 176.728 24.28C177.208 24.28 177.624 24.04 177.976 23.56C178.344 23.08 178.584 22.424 178.696 21.592L179.104 21.64C178.976 22.744 178.624 23.624 178.048 24.28C177.472 24.92 176.52 25.24 175.192 25.24C173.864 25.24 172.848 24.976 172.144 24.448C171.44 23.92 171.088 22.96 171.088 21.568ZM185.094 19.36H185.79V17.512C185.79 15.992 185.702 14.976 185.526 14.464C185.366 13.936 185.046 13.672 184.566 13.672C184.278 13.672 184.014 13.752 183.774 13.912C183.55 14.056 183.438 14.264 183.438 14.536C183.438 14.792 183.486 15.056 183.582 15.328H184.182C184.31 15.664 184.374 16.072 184.374 16.552C184.374 17.016 184.174 17.424 183.774 17.776C183.374 18.112 182.87 18.28 182.262 18.28C180.886 18.28 180.198 17.616 180.198 16.288C180.198 14.32 181.87 13.336 185.214 13.336C187.118 13.336 188.43 13.664 189.15 14.32C189.886 14.96 190.254 16.144 190.254 17.872V22.744C190.254 23.576 190.486 23.992 190.95 23.992C191.494 23.992 191.814 23.168 191.91 21.52L192.27 21.544C192.206 22.952 191.942 23.92 191.478 24.448C191.014 24.976 190.254 25.24 189.198 25.24C187.278 25.24 186.174 24.648 185.886 23.464C185.678 24.072 185.366 24.52 184.95 24.808C184.534 25.096 183.926 25.24 183.126 25.24C180.758 25.24 179.574 24.272 179.574 22.336C179.574 21.2 180.022 20.424 180.918 20.008C181.83 19.576 183.222 19.36 185.094 19.36ZM184.134 22.312C184.134 23.144 184.174 23.68 184.254 23.92C184.35 24.16 184.518 24.28 184.758 24.28C185.014 24.28 185.246 24.08 185.454 23.68C185.678 23.264 185.79 22.696 185.79 21.976V19.744H185.622C184.63 19.744 184.134 20.472 184.134 21.928V22.312ZM189.486 7.96C188.878 10.312 188.022 11.488 186.918 11.488C186.374 11.488 185.678 11.328 184.83 11.008C183.982 10.688 183.406 10.528 183.102 10.528C182.494 10.528 182.054 10.856 181.782 11.512L181.494 11.416C181.862 10.216 182.246 9.336 182.646 8.776C183.046 8.2 183.598 7.912 184.302 7.912C184.734 7.912 185.35 8.072 186.15 8.392C186.966 8.712 187.51 8.872 187.782 8.872C188.486 8.872 188.95 8.536 189.174 7.864L189.486 7.96ZM200.258 20.272V18.232C200.258 16.68 200.17 15.552 199.994 14.848C199.834 14.128 199.45 13.768 198.842 13.768C198.49 13.768 198.202 13.872 197.978 14.08C197.77 14.272 197.618 14.6 197.522 15.064C197.378 15.784 197.306 16.88 197.306 18.352V20.224C197.306 21.968 197.354 23.016 197.45 23.368C197.562 23.72 197.674 24.008 197.786 24.232C197.962 24.616 198.306 24.808 198.818 24.808C199.442 24.808 199.85 24.448 200.042 23.728C200.186 23.216 200.258 22.064 200.258 20.272ZM198.77 25.24C196.77 25.24 195.258 24.728 194.234 23.704C193.21 22.68 192.698 21.216 192.698 19.312C192.698 17.392 193.242 15.92 194.33 14.896C195.434 13.856 196.978 13.336 198.962 13.336C200.946 13.336 202.426 13.816 203.402 14.776C204.378 15.72 204.866 17.168 204.866 19.12C204.866 23.2 202.834 25.24 198.77 25.24ZM141.32 52.656L145.496 40.656H143.624V40.2H147.296V40.656H146.168L140.384 57.24H138.368L132.248 40.656H131.144V40.2H138.992V40.656H137.288L141.32 52.656ZM152.06 57.24C149.996 57.24 148.444 56.712 147.404 55.656C146.38 54.584 145.868 53.104 145.868 51.216C145.868 49.312 146.444 47.856 147.596 46.848C148.764 45.84 150.244 45.336 152.036 45.336C155.668 45.336 157.412 47.16 157.268 50.808H150.5V51.744C150.5 53.312 150.7 54.496 151.1 55.296C151.5 56.096 152.196 56.496 153.188 56.496C155.044 56.496 156.26 55.504 156.836 53.52L157.268 53.592C156.964 54.744 156.412 55.64 155.612 56.28C154.828 56.92 153.644 57.24 152.06 57.24ZM150.524 50.328H152.996V49.152C152.996 47.856 152.916 46.976 152.756 46.512C152.612 46.032 152.308 45.792 151.844 45.792C151.396 45.792 151.06 46.048 150.836 46.56C150.628 47.056 150.524 47.92 150.524 49.152V50.328ZM167.747 44.328L168.419 43.92C168.515 43.424 168.323 43.176 167.843 43.176C167.155 43.176 166.811 43.704 166.811 44.76C166.811 45.176 166.867 45.656 166.979 46.2C168.195 47.016 168.803 48.064 168.803 49.344C168.803 50.608 168.363 51.592 167.483 52.296C166.603 53 165.411 53.352 163.907 53.352C163.283 53.352 162.635 53.288 161.963 53.16C161.259 53.608 160.907 53.944 160.907 54.168C160.907 54.392 161.419 54.504 162.443 54.504H164.891C168.523 54.504 170.339 55.808 170.339 58.416C170.339 59.824 169.787 60.936 168.683 61.752C167.595 62.584 165.891 63 163.571 63C159.619 63 157.643 62.144 157.643 60.432C157.643 59.504 158.259 58.864 159.491 58.512L160.931 59.16C160.803 59.624 160.739 60.064 160.739 60.48C160.739 61.856 161.763 62.544 163.811 62.544C165.059 62.544 166.019 62.312 166.691 61.848C167.363 61.384 167.699 60.808 167.699 60.12C167.699 59.432 167.491 58.968 167.075 58.728C166.675 58.504 165.867 58.392 164.651 58.392H162.323C161.027 58.392 160.099 58.176 159.539 57.744C158.979 57.312 158.699 56.784 158.699 56.16C158.699 55.52 158.899 54.992 159.299 54.576C159.699 54.144 160.411 53.616 161.435 52.992C159.579 52.464 158.651 51.248 158.651 49.344C158.651 48.144 159.083 47.176 159.947 46.44C160.811 45.704 162.107 45.336 163.835 45.336C164.875 45.336 165.763 45.536 166.499 45.936C166.403 45.504 166.355 45.112 166.355 44.76C166.355 43.864 166.595 43.216 167.075 42.816C167.555 42.416 168.091 42.216 168.683 42.216C169.275 42.216 169.747 42.376 170.099 42.696C170.467 43 170.651 43.424 170.651 43.968C170.651 44.512 170.507 44.92 170.219 45.192C169.931 45.448 169.579 45.576 169.163 45.576C168.763 45.576 168.427 45.472 168.155 45.264C167.899 45.04 167.763 44.728 167.747 44.328ZM162.659 48.816V50.112C162.659 51.184 162.747 51.912 162.923 52.296C163.115 52.68 163.395 52.872 163.763 52.872C164.147 52.872 164.419 52.688 164.579 52.32C164.755 51.936 164.843 51.16 164.843 49.992V48.816C164.843 47.568 164.763 46.752 164.603 46.368C164.443 45.968 164.171 45.768 163.787 45.768C163.419 45.768 163.139 45.976 162.947 46.392C162.755 46.792 162.659 47.6 162.659 48.816ZM175.812 51.36H176.509V49.512C176.509 47.992 176.421 46.976 176.245 46.464C176.085 45.936 175.765 45.672 175.285 45.672C174.997 45.672 174.733 45.752 174.493 45.912C174.269 46.056 174.157 46.264 174.157 46.536C174.157 46.792 174.205 47.056 174.301 47.328H174.901C175.029 47.664 175.093 48.072 175.093 48.552C175.093 49.016 174.893 49.424 174.493 49.776C174.093 50.112 173.589 50.28 172.98 50.28C171.605 50.28 170.917 49.616 170.917 48.288C170.917 46.32 172.589 45.336 175.933 45.336C177.837 45.336 179.149 45.664 179.869 46.32C180.605 46.96 180.973 48.144 180.973 49.872V54.744C180.973 55.576 181.205 55.992 181.669 55.992C182.213 55.992 182.533 55.168 182.629 53.52L182.989 53.544C182.925 54.952 182.661 55.92 182.197 56.448C181.733 56.976 180.973 57.24 179.917 57.24C177.997 57.24 176.893 56.648 176.605 55.464C176.397 56.072 176.085 56.52 175.669 56.808C175.253 57.096 174.645 57.24 173.845 57.24C171.477 57.24 170.293 56.272 170.293 54.336C170.293 53.2 170.741 52.424 171.637 52.008C172.549 51.576 173.941 51.36 175.812 51.36ZM174.853 54.312C174.853 55.144 174.893 55.68 174.973 55.92C175.069 56.16 175.237 56.28 175.477 56.28C175.733 56.28 175.965 56.08 176.173 55.68C176.397 55.264 176.509 54.696 176.509 53.976V51.744H176.341C175.349 51.744 174.853 52.472 174.853 53.928V54.312ZM183.272 45.576H189.056V47.784C189.312 47.048 189.704 46.456 190.232 46.008C190.76 45.56 191.56 45.336 192.632 45.336C195.112 45.336 196.352 46.672 196.352 49.344V56.568H197.696V57H190.904V56.568H191.888V48.768C191.888 47.808 191.824 47.192 191.696 46.92C191.568 46.632 191.336 46.488 191 46.488C190.488 46.488 190.032 46.824 189.632 47.496C189.248 48.168 189.056 48.984 189.056 49.944V56.568H190.088V57H183.272V56.568H184.592V46.008H183.272V45.576Z" fill="black"/>
<path d="M78.5533 10.106H77.9703V13.791H78.6853V14H75.1103V13.791H75.8253V6.509H75.1103V6.3H78.4323C79.3856 6.3 80.0603 6.35133 80.4563 6.454C80.8596 6.54933 81.142 6.66667 81.3033 6.806C81.6553 7.092 81.8313 7.54667 81.8313 8.17C81.8313 8.79333 81.6773 9.24067 81.3693 9.512C81.0613 9.776 80.592 9.93367 79.9613 9.985V10.018C80.5553 10.0987 80.9696 10.2747 81.2043 10.546C81.439 10.8173 81.5563 11.272 81.5563 11.91V12.493C81.5563 12.8743 81.5746 13.131 81.6113 13.263C81.6553 13.395 81.7433 13.461 81.8753 13.461C82.0073 13.461 82.11 13.4023 82.1833 13.285C82.264 13.1603 82.3373 12.9037 82.4033 12.515L82.5903 12.537C82.5096 13.1603 82.3666 13.5783 82.1613 13.791C81.9633 14.0037 81.5636 14.11 80.9623 14.11C80.361 14.11 79.932 13.9707 79.6753 13.692C79.426 13.406 79.3013 12.8743 79.3013 12.097V11.294C79.3013 10.8833 79.2463 10.5827 79.1363 10.392C79.0336 10.2013 78.8393 10.106 78.5533 10.106ZM77.9703 6.509V9.897H78.3223C78.7403 9.897 79.0483 9.76867 79.2463 9.512C79.4516 9.25533 79.5543 8.83733 79.5543 8.258V7.939C79.5543 7.35967 79.4553 6.97833 79.2573 6.795C79.0666 6.60433 78.7586 6.509 78.3333 6.509H77.9703ZM85.7149 14.11C84.7689 14.11 84.0576 13.868 83.5809 13.384C83.1116 12.8927 82.8769 12.2143 82.8769 11.349C82.8769 10.4763 83.1409 9.809 83.6689 9.347C84.2042 8.885 84.8826 8.654 85.7039 8.654C87.3686 8.654 88.1679 9.49 88.1019 11.162H84.9999V11.591C84.9999 12.3097 85.0916 12.8523 85.2749 13.219C85.4582 13.5857 85.7772 13.769 86.2319 13.769C87.0826 13.769 87.6399 13.3143 87.9039 12.405L88.1019 12.438C87.9626 12.966 87.7096 13.3767 87.3429 13.67C86.9836 13.9633 86.4409 14.11 85.7149 14.11ZM85.0109 10.942H86.1439V10.403C86.1439 9.809 86.1072 9.40567 86.0339 9.193C85.9679 8.973 85.8286 8.863 85.6159 8.863C85.4106 8.863 85.2566 8.98033 85.1539 9.215C85.0586 9.44233 85.0109 9.83833 85.0109 10.403V10.942ZM91.5738 8.852C91.2511 8.852 91.0201 9.028 90.8808 9.38C90.7415 9.732 90.6718 10.315 90.6718 11.129V11.701C90.6718 12.427 90.7525 12.9477 90.9138 13.263C91.0751 13.5783 91.3721 13.736 91.8048 13.736C92.2375 13.736 92.5821 13.5893 92.8388 13.296C93.0955 13.0027 93.2605 12.669 93.3338 12.295L93.5318 12.317C93.3925 12.9477 93.1358 13.4023 92.7618 13.681C92.3805 13.967 91.8561 14.11 91.1888 14.11C90.3381 14.11 89.6855 13.8827 89.2308 13.428C88.7761 12.966 88.5488 12.295 88.5488 11.415C88.5488 10.5277 88.8055 9.84567 89.3188 9.369C89.8395 8.89233 90.5618 8.654 91.4858 8.654C92.1385 8.654 92.6371 8.78233 92.9818 9.039C93.3265 9.28833 93.4988 9.60367 93.4988 9.985C93.4988 10.3663 93.4145 10.645 93.2458 10.821C93.0845 10.997 92.8571 11.085 92.5638 11.085C92.2778 11.085 92.0468 11.008 91.8708 10.854C91.6948 10.7 91.6068 10.4727 91.6068 10.172C91.6068 10.04 91.6251 9.908 91.6618 9.776H92.0248C92.0761 9.62933 92.1018 9.49733 92.1018 9.38C92.1018 9.028 91.9258 8.852 91.5738 8.852ZM96.7042 14.11C95.7582 14.11 95.0468 13.868 94.5702 13.384C94.1008 12.8927 93.8662 12.2143 93.8662 11.349C93.8662 10.4763 94.1302 9.809 94.6582 9.347C95.1935 8.885 95.8718 8.654 96.6932 8.654C98.3578 8.654 99.1572 9.49 99.0912 11.162H95.9892V11.591C95.9892 12.3097 96.0808 12.8523 96.2642 13.219C96.4475 13.5857 96.7665 13.769 97.2212 13.769C98.0718 13.769 98.6292 13.3143 98.8932 12.405L99.0912 12.438C98.9518 12.966 98.6988 13.3767 98.3322 13.67C97.9728 13.9633 97.4302 14.11 96.7042 14.11ZM96.0002 10.942H97.1332V10.403C97.1332 9.809 97.0965 9.40567 97.0232 9.193C96.9572 8.973 96.8178 8.863 96.6052 8.863C96.3998 8.863 96.2458 8.98033 96.1432 9.215C96.0478 9.44233 96.0002 9.83833 96.0002 10.403V10.942ZM101.1 8.005C100.711 8.005 100.433 7.906 100.264 7.708C100.103 7.51 100.022 7.26433 100.022 6.971C100.022 6.67767 100.11 6.43567 100.286 6.245C100.469 6.05433 100.744 5.959 101.111 5.959C101.478 5.959 101.756 6.047 101.947 6.223C102.138 6.39167 102.233 6.63733 102.233 6.96C102.233 7.27533 102.141 7.52833 101.958 7.719C101.775 7.90967 101.489 8.005 101.1 8.005ZM99.439 8.764H102.134V13.802H102.75V14H99.483V13.802H100.088V8.962H99.439V8.764ZM103.524 12.427V8.962H102.919V8.764H103.524V7.345L105.57 6.839V8.764H107V8.962H105.57V12.669C105.57 13.0137 105.603 13.2667 105.669 13.428C105.743 13.5893 105.889 13.67 106.109 13.67C106.329 13.67 106.52 13.56 106.681 13.34C106.85 13.12 106.96 12.8193 107.011 12.438L107.198 12.46C107.14 12.966 106.978 13.3693 106.714 13.67C106.45 13.9633 106.014 14.11 105.405 14.11C104.797 14.11 104.331 13.989 104.008 13.747C103.686 13.505 103.524 13.065 103.524 12.427ZM109.943 11.415H110.262V10.568C110.262 9.87133 110.222 9.40567 110.141 9.171C110.068 8.929 109.921 8.808 109.701 8.808C109.569 8.808 109.448 8.84467 109.338 8.918C109.236 8.984 109.184 9.07933 109.184 9.204C109.184 9.32133 109.206 9.44233 109.25 9.567H109.525C109.584 9.721 109.613 9.908 109.613 10.128C109.613 10.3407 109.522 10.5277 109.338 10.689C109.155 10.843 108.924 10.92 108.645 10.92C108.015 10.92 107.699 10.6157 107.699 10.007C107.699 9.105 108.466 8.654 109.998 8.654C110.871 8.654 111.472 8.80433 111.802 9.105C112.14 9.39833 112.308 9.941 112.308 10.733V12.966C112.308 13.3473 112.415 13.538 112.627 13.538C112.877 13.538 113.023 13.1603 113.067 12.405L113.232 12.416C113.203 13.0613 113.082 13.505 112.869 13.747C112.657 13.989 112.308 14.11 111.824 14.11C110.944 14.11 110.438 13.8387 110.306 13.296C110.211 13.5747 110.068 13.78 109.877 13.912C109.687 14.044 109.408 14.11 109.041 14.11C107.956 14.11 107.413 13.6663 107.413 12.779C107.413 12.2583 107.619 11.9027 108.029 11.712C108.447 11.514 109.085 11.415 109.943 11.415ZM109.503 12.768C109.503 13.1493 109.522 13.395 109.558 13.505C109.602 13.615 109.679 13.67 109.789 13.67C109.907 13.67 110.013 13.5783 110.108 13.395C110.211 13.2043 110.262 12.944 110.262 12.614V11.591H110.185C109.731 11.591 109.503 11.9247 109.503 12.592V12.768ZM113.593 14.11V12.141H113.725C113.916 12.779 114.173 13.2263 114.495 13.483C114.818 13.7397 115.221 13.868 115.705 13.868C116.453 13.868 116.827 13.6297 116.827 13.153C116.827 12.9477 116.736 12.7937 116.552 12.691C116.266 12.5297 115.9 12.405 115.452 12.317C114.954 12.185 114.536 12.009 114.198 11.789C113.795 11.525 113.593 11.107 113.593 10.535C113.593 9.963 113.769 9.50833 114.121 9.171C114.473 8.82633 114.943 8.654 115.529 8.654C115.889 8.654 116.259 8.73833 116.64 8.907C116.78 8.96567 116.886 8.995 116.959 8.995C117.033 8.995 117.095 8.96933 117.146 8.918C117.198 8.86667 117.26 8.77133 117.333 8.632H117.454V10.315H117.322C116.948 9.36167 116.369 8.885 115.584 8.885C115.24 8.885 114.983 8.94733 114.814 9.072C114.646 9.18933 114.561 9.33967 114.561 9.523C114.561 9.633 114.587 9.721 114.638 9.787C114.69 9.84567 114.73 9.88967 114.759 9.919C114.789 9.94833 114.836 9.98133 114.902 10.018C114.968 10.0473 115.023 10.073 115.067 10.095C115.111 10.1097 115.177 10.1317 115.265 10.161C115.361 10.1903 115.43 10.2087 115.474 10.216C115.973 10.3407 116.332 10.4507 116.552 10.546C116.772 10.634 116.981 10.744 117.179 10.876C117.583 11.1547 117.784 11.6057 117.784 12.229C117.784 12.845 117.601 13.3143 117.234 13.637C116.868 13.9523 116.365 14.11 115.727 14.11C115.273 14.11 114.833 14.0037 114.407 13.791C114.319 13.7323 114.25 13.703 114.198 13.703C114.037 13.703 113.879 13.8387 113.725 14.11H113.593ZM55.2312 29.11V27.141H55.3632C55.5538 27.779 55.8105 28.2263 56.1332 28.483C56.4558 28.7397 56.8592 28.868 57.3432 28.868C58.0912 28.868 58.4652 28.6297 58.4652 28.153C58.4652 27.9477 58.3735 27.7937 58.1902 27.691C57.9042 27.5297 57.5375 27.405 57.0902 27.317C56.5915 27.185 56.1735 27.009 55.8362 26.789C55.4328 26.525 55.2312 26.107 55.2312 25.535C55.2312 24.963 55.4072 24.5083 55.7592 24.171C56.1112 23.8263 56.5805 23.654 57.1672 23.654C57.5265 23.654 57.8968 23.7383 58.2782 23.907C58.4175 23.9657 58.5238 23.995 58.5972 23.995C58.6705 23.995 58.7328 23.9693 58.7842 23.918C58.8355 23.8667 58.8978 23.7713 58.9712 23.632H59.0922V25.315H58.9602C58.5862 24.3617 58.0068 23.885 57.2222 23.885C56.8775 23.885 56.6208 23.9473 56.4522 24.072C56.2835 24.1893 56.1992 24.3397 56.1992 24.523C56.1992 24.633 56.2248 24.721 56.2762 24.787C56.3275 24.8457 56.3678 24.8897 56.3972 24.919C56.4265 24.9483 56.4742 24.9813 56.5402 25.018C56.6062 25.0473 56.6612 25.073 56.7052 25.095C56.7492 25.1097 56.8152 25.1317 56.9032 25.161C56.9985 25.1903 57.0682 25.2087 57.1122 25.216C57.6108 25.3407 57.9702 25.4507 58.1902 25.546C58.4102 25.634 58.6192 25.744 58.8172 25.876C59.2205 26.1547 59.4222 26.6057 59.4222 27.229C59.4222 27.845 59.2388 28.3143 58.8722 28.637C58.5055 28.9523 58.0032 29.11 57.3652 29.11C56.9105 29.11 56.4705 29.0037 56.0452 28.791C55.9572 28.7323 55.8875 28.703 55.8362 28.703C55.6748 28.703 55.5172 28.8387 55.3632 29.11H55.2312ZM62.3877 26.415H62.7067V25.568C62.7067 24.8713 62.6664 24.4057 62.5857 24.171C62.5124 23.929 62.3657 23.808 62.1457 23.808C62.0137 23.808 61.8927 23.8447 61.7827 23.918C61.68 23.984 61.6287 24.0793 61.6287 24.204C61.6287 24.3213 61.6507 24.4423 61.6947 24.567H61.9697C62.0284 24.721 62.0577 24.908 62.0577 25.128C62.0577 25.3407 61.966 25.5277 61.7827 25.689C61.5994 25.843 61.3684 25.92 61.0897 25.92C60.459 25.92 60.1437 25.6157 60.1437 25.007C60.1437 24.105 60.91 23.654 62.4427 23.654C63.3154 23.654 63.9167 23.8043 64.2467 24.105C64.584 24.3983 64.7527 24.941 64.7527 25.733V27.966C64.7527 28.3473 64.859 28.538 65.0717 28.538C65.321 28.538 65.4677 28.1603 65.5117 27.405L65.6767 27.416C65.6474 28.0613 65.5264 28.505 65.3137 28.747C65.101 28.989 64.7527 29.11 64.2687 29.11C63.3887 29.11 62.8827 28.8387 62.7507 28.296C62.6554 28.5747 62.5124 28.78 62.3217 28.912C62.131 29.044 61.8524 29.11 61.4857 29.11C60.4004 29.11 59.8577 28.6663 59.8577 27.779C59.8577 27.2583 60.063 26.9027 60.4737 26.712C60.8917 26.514 61.5297 26.415 62.3877 26.415ZM61.9477 27.768C61.9477 28.1493 61.966 28.395 62.0027 28.505C62.0467 28.615 62.1237 28.67 62.2337 28.67C62.351 28.67 62.4574 28.5783 62.5527 28.395C62.6554 28.2043 62.7067 27.944 62.7067 27.614V26.591H62.6297C62.175 26.591 61.9477 26.9247 61.9477 27.592V27.768ZM72.1124 29H69.6044L69.4834 28.197C69.366 28.4903 69.19 28.7177 68.9554 28.879C68.728 29.033 68.387 29.11 67.9324 29.11C66.7957 29.11 66.2274 28.4977 66.2274 27.273V23.962H65.6114V23.764H68.2734V27.537C68.2734 27.977 68.3027 28.2667 68.3614 28.406C68.4274 28.5453 68.552 28.615 68.7354 28.615C68.926 28.615 69.0947 28.5013 69.2414 28.274C69.388 28.0467 69.4614 27.7313 69.4614 27.328V23.962H68.9554V23.764H71.5074V28.802H72.1124V29ZM74.5705 26.723C74.5705 27.493 74.6109 28.0063 74.6915 28.263C74.7722 28.5123 74.9189 28.637 75.1315 28.637C75.3515 28.637 75.5385 28.5417 75.6925 28.351C75.8539 28.1603 75.9345 27.878 75.9345 27.504V25.106C75.9345 24.7907 75.8722 24.523 75.7475 24.303C75.6229 24.083 75.4395 23.973 75.1975 23.973C74.9555 23.973 74.7905 24.1343 74.7025 24.457C74.6145 24.7797 74.5705 25.3443 74.5705 26.151V26.723ZM76.0775 29L75.9565 28.23C75.7072 28.8167 75.2012 29.11 74.4385 29.11C73.8079 29.11 73.3165 28.8827 72.9645 28.428C72.6199 27.9733 72.4475 27.295 72.4475 26.393C72.4475 24.567 73.1735 23.654 74.6255 23.654C75.2709 23.654 75.6962 23.8337 75.9015 24.193V20.948H75.2305V20.75H77.9805V28.802H78.5195V29H76.0775ZM81.4443 26.415H81.7633V25.568C81.7633 24.8713 81.723 24.4057 81.6423 24.171C81.569 23.929 81.4223 23.808 81.2023 23.808C81.0703 23.808 80.9493 23.8447 80.8393 23.918C80.7367 23.984 80.6853 24.0793 80.6853 24.204C80.6853 24.3213 80.7073 24.4423 80.7513 24.567H81.0263C81.085 24.721 81.1143 24.908 81.1143 25.128C81.1143 25.3407 81.0227 25.5277 80.8393 25.689C80.656 25.843 80.425 25.92 80.1463 25.92C79.5157 25.92 79.2003 25.6157 79.2003 25.007C79.2003 24.105 79.9667 23.654 81.4993 23.654C82.372 23.654 82.9733 23.8043 83.3033 24.105C83.6407 24.3983 83.8093 24.941 83.8093 25.733V27.966C83.8093 28.3473 83.9157 28.538 84.1283 28.538C84.3777 28.538 84.5243 28.1603 84.5683 27.405L84.7333 27.416C84.704 28.0613 84.583 28.505 84.3703 28.747C84.1577 28.989 83.8093 29.11 83.3253 29.11C82.4453 29.11 81.9393 28.8387 81.8073 28.296C81.712 28.5747 81.569 28.78 81.3783 28.912C81.1877 29.044 80.909 29.11 80.5423 29.11C79.457 29.11 78.9143 28.6663 78.9143 27.779C78.9143 27.2583 79.1197 26.9027 79.5303 26.712C79.9483 26.514 80.5863 26.415 81.4443 26.415ZM81.0043 27.768C81.0043 28.1493 81.0227 28.395 81.0593 28.505C81.1033 28.615 81.1803 28.67 81.2903 28.67C81.4077 28.67 81.514 28.5783 81.6093 28.395C81.712 28.2043 81.7633 27.944 81.7633 27.614V26.591H81.6863C81.2317 26.591 81.0043 26.9247 81.0043 27.592V27.768ZM80.7623 22.983L81.4553 20.882L81.9723 20.772C82.1997 20.7207 82.372 20.75 82.4893 20.86C82.614 20.9627 82.6763 21.1057 82.6763 21.289C82.6763 21.465 82.57 21.6483 82.3573 21.839L80.8833 23.06L80.7623 22.983ZM84.0762 23.962V23.764H87.3652V23.962H86.6722L87.9922 27.614L89.1802 23.962H88.4432V23.764H89.9282V23.962H89.4442L87.8162 29H86.5622L84.5272 23.962H84.0762ZM92.6544 29.11C91.7084 29.11 90.997 28.868 90.5204 28.384C90.051 27.8927 89.8164 27.2143 89.8164 26.349C89.8164 25.4763 90.0804 24.809 90.6084 24.347C91.1437 23.885 91.822 23.654 92.6434 23.654C94.308 23.654 95.1074 24.49 95.0414 26.162H91.9394V26.591C91.9394 27.3097 92.031 27.8523 92.2144 28.219C92.3977 28.5857 92.7167 28.769 93.1714 28.769C94.022 28.769 94.5794 28.3143 94.8434 27.405L95.0414 27.438C94.902 27.966 94.649 28.3767 94.2824 28.67C93.923 28.9633 93.3804 29.11 92.6544 29.11ZM91.9504 25.942H93.0834V25.403C93.0834 24.809 93.0467 24.4057 92.9734 24.193C92.9074 23.973 92.768 23.863 92.5554 23.863C92.35 23.863 92.196 23.9803 92.0934 24.215C91.998 24.4423 91.9504 24.8383 91.9504 25.403V25.942ZM97.0502 23.005C96.6616 23.005 96.3829 22.906 96.2142 22.708C96.0529 22.51 95.9722 22.2643 95.9722 21.971C95.9722 21.6777 96.0602 21.4357 96.2362 21.245C96.4196 21.0543 96.6946 20.959 97.0612 20.959C97.4279 20.959 97.7066 21.047 97.8972 21.223C98.0879 21.3917 98.1832 21.6373 98.1832 21.96C98.1832 22.2753 98.0916 22.5283 97.9082 22.719C97.7249 22.9097 97.4389 23.005 97.0502 23.005ZM95.3892 23.764H98.0842V28.802H98.7002V29H95.4332V28.802H96.0382V23.962H95.3892V23.764ZM99.1775 29.11V27.141H99.3095C99.5001 27.779 99.7568 28.2263 100.079 28.483C100.402 28.7397 100.805 28.868 101.289 28.868C102.037 28.868 102.411 28.6297 102.411 28.153C102.411 27.9477 102.32 27.7937 102.136 27.691C101.85 27.5297 101.484 27.405 101.036 27.317C100.538 27.185 100.12 27.009 99.7825 26.789C99.3791 26.525 99.1775 26.107 99.1775 25.535C99.1775 24.963 99.3535 24.5083 99.7055 24.171C100.057 23.8263 100.527 23.654 101.113 23.654C101.473 23.654 101.843 23.7383 102.224 23.907C102.364 23.9657 102.47 23.995 102.543 23.995C102.617 23.995 102.679 23.9693 102.73 23.918C102.782 23.8667 102.844 23.7713 102.917 23.632H103.038V25.315H102.906C102.532 24.3617 101.953 23.885 101.168 23.885C100.824 23.885 100.567 23.9473 100.398 24.072C100.23 24.1893 100.145 24.3397 100.145 24.523C100.145 24.633 100.171 24.721 100.222 24.787C100.274 24.8457 100.314 24.8897 100.343 24.919C100.373 24.9483 100.42 24.9813 100.486 25.018C100.552 25.0473 100.607 25.073 100.651 25.095C100.695 25.1097 100.761 25.1317 100.849 25.161C100.945 25.1903 101.014 25.2087 101.058 25.216C101.557 25.3407 101.916 25.4507 102.136 25.546C102.356 25.634 102.565 25.744 102.763 25.876C103.167 26.1547 103.368 26.6057 103.368 27.229C103.368 27.845 103.185 28.3143 102.818 28.637C102.452 28.9523 101.949 29.11 101.311 29.11C100.857 29.11 100.417 29.0037 99.9915 28.791C99.9035 28.7323 99.8338 28.703 99.7825 28.703C99.6211 28.703 99.4635 28.8387 99.3095 29.11H99.1775ZM107.904 26.723C107.904 27.493 107.944 28.0063 108.025 28.263C108.105 28.5123 108.252 28.637 108.465 28.637C108.685 28.637 108.872 28.5417 109.026 28.351C109.187 28.1603 109.268 27.878 109.268 27.504V25.106C109.268 24.7907 109.205 24.523 109.081 24.303C108.956 24.083 108.773 23.973 108.531 23.973C108.289 23.973 108.124 24.1343 108.036 24.457C107.948 24.7797 107.904 25.3443 107.904 26.151V26.723ZM109.411 29L109.29 28.23C109.04 28.8167 108.534 29.11 107.772 29.11C107.141 29.11 106.65 28.8827 106.298 28.428C105.953 27.9733 105.781 27.295 105.781 26.393C105.781 24.567 106.507 23.654 107.959 23.654C108.604 23.654 109.029 23.8337 109.235 24.193V20.948H108.564V20.75H111.314V28.802H111.853V29H109.411ZM115.69 26.833V25.898C115.69 25.1867 115.65 24.6697 115.569 24.347C115.496 24.017 115.32 23.852 115.041 23.852C114.88 23.852 114.748 23.8997 114.645 23.995C114.55 24.083 114.48 24.2333 114.436 24.446C114.37 24.776 114.337 25.2783 114.337 25.953V26.811C114.337 27.6103 114.359 28.0907 114.403 28.252C114.455 28.4133 114.506 28.5453 114.557 28.648C114.638 28.824 114.796 28.912 115.03 28.912C115.316 28.912 115.503 28.747 115.591 28.417C115.657 28.1823 115.69 27.6543 115.69 26.833ZM115.008 29.11C114.092 29.11 113.399 28.8753 112.929 28.406C112.46 27.9367 112.225 27.2657 112.225 26.393C112.225 25.513 112.475 24.8383 112.973 24.369C113.479 23.8923 114.187 23.654 115.096 23.654C116.006 23.654 116.684 23.874 117.131 24.314C117.579 24.7467 117.802 25.4103 117.802 26.305C117.802 28.175 116.871 29.11 115.008 29.11ZM39.4884 38.764H42.1394V39.776C42.2568 39.4387 42.4364 39.1673 42.6784 38.962C42.9204 38.7567 43.2871 38.654 43.7784 38.654C44.9151 38.654 45.4834 39.2663 45.4834 40.491V43.802H46.0994V44H42.9864V43.802H43.4374V40.227C43.4374 39.787 43.4081 39.5047 43.3494 39.38C43.2908 39.248 43.1844 39.182 43.0304 39.182C42.7958 39.182 42.5868 39.336 42.4034 39.644C42.2274 39.952 42.1394 40.326 42.1394 40.766V43.802H42.6124V44H39.4884V43.802H40.0934V38.962H39.4884V38.764ZM49.7978 41.833V40.898C49.7978 40.1867 49.7574 39.6697 49.6768 39.347C49.6034 39.017 49.4274 38.852 49.1488 38.852C48.9874 38.852 48.8554 38.8997 48.7528 38.995C48.6574 39.083 48.5878 39.2333 48.5438 39.446C48.4778 39.776 48.4448 40.2783 48.4448 40.953V41.811C48.4448 42.6103 48.4668 43.0907 48.5108 43.252C48.5621 43.4133 48.6134 43.5453 48.6648 43.648C48.7454 43.824 48.9031 43.912 49.1378 43.912C49.4238 43.912 49.6108 43.747 49.6988 43.417C49.7648 43.1823 49.7978 42.6543 49.7978 41.833ZM49.1158 44.11C48.1991 44.11 47.5061 43.8753 47.0368 43.406C46.5674 42.9367 46.3328 42.2657 46.3328 41.393C46.3328 40.513 46.5821 39.8383 47.0808 39.369C47.5868 38.8923 48.2944 38.654 49.2038 38.654C50.1131 38.654 50.7914 38.874 51.2388 39.314C51.6861 39.7467 51.9098 40.4103 51.9098 41.305C51.9098 43.175 50.9784 44.11 49.1158 44.11ZM55.8914 39.072C55.6201 39.072 55.3818 39.248 55.1764 39.6C54.9711 39.952 54.8684 40.37 54.8684 40.854V43.802H55.6494V44H52.2174V43.802H52.8224V38.962H52.2174V38.764H54.8684V39.82C54.9638 39.446 55.1471 39.16 55.4184 38.962C55.6898 38.7567 55.9978 38.654 56.3424 38.654C56.6871 38.654 56.9658 38.753 57.1784 38.951C57.3984 39.1417 57.5084 39.4167 57.5084 39.776C57.5084 40.128 57.4278 40.3993 57.2664 40.59C57.1051 40.7807 56.8558 40.876 56.5184 40.876C56.1884 40.876 55.9428 40.766 55.7814 40.546C55.6274 40.326 55.6091 40.0217 55.7264 39.633H56.1224C56.3058 39.259 56.2288 39.072 55.8914 39.072ZM59.8967 41.723C59.8967 42.493 59.937 43.0063 60.0177 43.263C60.0984 43.5123 60.245 43.637 60.4577 43.637C60.6777 43.637 60.8647 43.5417 61.0187 43.351C61.18 43.1603 61.2607 42.878 61.2607 42.504V40.106C61.2607 39.7907 61.1984 39.523 61.0737 39.303C60.949 39.083 60.7657 38.973 60.5237 38.973C60.2817 38.973 60.1167 39.1343 60.0287 39.457C59.9407 39.7797 59.8967 40.3443 59.8967 41.151V41.723ZM61.4037 44L61.2827 43.23C61.0334 43.8167 60.5274 44.11 59.7647 44.11C59.134 44.11 58.6427 43.8827 58.2907 43.428C57.946 42.9733 57.7737 42.295 57.7737 41.393C57.7737 39.567 58.4997 38.654 59.9517 38.654C60.597 38.654 61.0224 38.8337 61.2277 39.193V35.948H60.5567V35.75H63.3067V43.802H63.8457V44H61.4037ZM67.0235 44.11C66.0775 44.11 65.3662 43.868 64.8895 43.384C64.4202 42.8927 64.1855 42.2143 64.1855 41.349C64.1855 40.4763 64.4495 39.809 64.9775 39.347C65.5128 38.885 66.1912 38.654 67.0125 38.654C68.6772 38.654 69.4765 39.49 69.4105 41.162H66.3085V41.591C66.3085 42.3097 66.4002 42.8523 66.5835 43.219C66.7668 43.5857 67.0858 43.769 67.5405 43.769C68.3912 43.769 68.9485 43.3143 69.2125 42.405L69.4105 42.438C69.2712 42.966 69.0182 43.3767 68.6515 43.67C68.2922 43.9633 67.7495 44.11 67.0235 44.11ZM66.3195 40.942H67.4525V40.403C67.4525 39.809 67.4158 39.4057 67.3425 39.193C67.2765 38.973 67.1372 38.863 66.9245 38.863C66.7192 38.863 66.5652 38.9803 66.4625 39.215C66.3672 39.4423 66.3195 39.8383 66.3195 40.403V40.942ZM69.948 44.11V42.141H70.08C70.2706 42.779 70.5273 43.2263 70.85 43.483C71.1726 43.7397 71.576 43.868 72.06 43.868C72.808 43.868 73.182 43.6297 73.182 43.153C73.182 42.9477 73.0903 42.7937 72.907 42.691C72.621 42.5297 72.2543 42.405 71.807 42.317C71.3083 42.185 70.8903 42.009 70.553 41.789C70.1496 41.525 69.948 41.107 69.948 40.535C69.948 39.963 70.124 39.5083 70.476 39.171C70.828 38.8263 71.2973 38.654 71.884 38.654C72.2433 38.654 72.6136 38.7383 72.995 38.907C73.1343 38.9657 73.2406 38.995 73.314 38.995C73.3873 38.995 73.4496 38.9693 73.501 38.918C73.5523 38.8667 73.6146 38.7713 73.688 38.632H73.809V40.315H73.677C73.303 39.3617 72.7236 38.885 71.939 38.885C71.5943 38.885 71.3376 38.9473 71.169 39.072C71.0003 39.1893 70.916 39.3397 70.916 39.523C70.916 39.633 70.9416 39.721 70.993 39.787C71.0443 39.8457 71.0846 39.8897 71.114 39.919C71.1433 39.9483 71.191 39.9813 71.257 40.018C71.323 40.0473 71.378 40.073 71.422 40.095C71.466 40.1097 71.532 40.1317 71.62 40.161C71.7153 40.1903 71.785 40.2087 71.829 40.216C72.3276 40.3407 72.687 40.4507 72.907 40.546C73.127 40.634 73.336 40.744 73.534 40.876C73.9373 41.1547 74.139 41.6057 74.139 42.229C74.139 42.845 73.9556 43.3143 73.589 43.637C73.2223 43.9523 72.72 44.11 72.082 44.11C71.6273 44.11 71.1873 44.0037 70.762 43.791C70.674 43.7323 70.6043 43.703 70.553 43.703C70.3916 43.703 70.234 43.8387 70.08 44.11H69.948ZM74.9071 42.427V38.962H74.3021V38.764H74.9071V37.345L76.9531 36.839V38.764H78.3831V38.962H76.9531V42.669C76.9531 43.0137 76.9861 43.2667 77.0521 43.428C77.1254 43.5893 77.2721 43.67 77.4921 43.67C77.7121 43.67 77.9027 43.56 78.0641 43.34C78.2327 43.12 78.3427 42.8193 78.3941 42.438L78.5811 42.46C78.5224 42.966 78.3611 43.3693 78.0971 43.67C77.8331 43.9633 77.3967 44.11 76.7881 44.11C76.1794 44.11 75.7137 43.989 75.3911 43.747C75.0684 43.505 74.9071 43.065 74.9071 42.427ZM81.5792 44.11C80.6332 44.11 79.9218 43.868 79.4452 43.384C78.9758 42.8927 78.7412 42.2143 78.7412 41.349C78.7412 40.4763 79.0052 39.809 79.5332 39.347C80.0685 38.885 80.7468 38.654 81.5682 38.654C83.2328 38.654 84.0322 39.49 83.9662 41.162H80.8642V41.591C80.8642 42.3097 80.9558 42.8523 81.1392 43.219C81.3225 43.5857 81.6415 43.769 82.0962 43.769C82.9468 43.769 83.5042 43.3143 83.7682 42.405L83.9662 42.438C83.8268 42.966 83.5738 43.3767 83.2072 43.67C82.8478 43.9633 82.3052 44.11 81.5792 44.11ZM80.8752 40.942H82.0082V40.403C82.0082 39.809 81.9715 39.4057 81.8982 39.193C81.8322 38.973 81.6928 38.863 81.4802 38.863C81.2748 38.863 81.1208 38.9803 81.0182 39.215C80.9228 39.4423 80.8752 39.8383 80.8752 40.403V40.942ZM90.3496 41.041C90.3496 40.2857 90.3129 39.7797 90.2396 39.523C90.1663 39.259 90.0233 39.127 89.8106 39.127C89.5979 39.127 89.4073 39.2663 89.2386 39.545C89.0699 39.8163 88.9856 40.183 88.9856 40.645V42.658C88.9856 42.9733 89.0479 43.241 89.1726 43.461C89.2973 43.681 89.4806 43.791 89.7226 43.791C89.9646 43.791 90.1296 43.6297 90.2176 43.307C90.3056 42.9843 90.3496 42.4197 90.3496 41.613V41.041ZM88.9636 38.764V39.633C89.2496 38.9803 89.7556 38.654 90.4816 38.654C91.1123 38.654 91.5999 38.8813 91.9446 39.336C92.2966 39.7907 92.4726 40.48 92.4726 41.404C92.4726 42.328 92.2819 43.01 91.9006 43.45C91.5266 43.89 90.9619 44.11 90.2066 44.11C89.8546 44.11 89.5906 44.066 89.4146 43.978C89.2386 43.89 89.0956 43.7543 88.9856 43.571V46.42H90.4046V46.618H86.3346V46.42H86.9396V38.962H86.3566V38.764H88.9636ZM95.4414 41.415H95.7604V40.568C95.7604 39.8713 95.7201 39.4057 95.6394 39.171C95.5661 38.929 95.4194 38.808 95.1994 38.808C95.0674 38.808 94.9464 38.8447 94.8364 38.918C94.7337 38.984 94.6824 39.0793 94.6824 39.204C94.6824 39.3213 94.7044 39.4423 94.7484 39.567H95.0234C95.0821 39.721 95.1114 39.908 95.1114 40.128C95.1114 40.3407 95.0197 40.5277 94.8364 40.689C94.6531 40.843 94.4221 40.92 94.1434 40.92C93.5127 40.92 93.1974 40.6157 93.1974 40.007C93.1974 39.105 93.9637 38.654 95.4964 38.654C96.3691 38.654 96.9704 38.8043 97.3004 39.105C97.6377 39.3983 97.8064 39.941 97.8064 40.733V42.966C97.8064 43.3473 97.9127 43.538 98.1254 43.538C98.3747 43.538 98.5214 43.1603 98.5654 42.405L98.7304 42.416C98.7011 43.0613 98.5801 43.505 98.3674 43.747C98.1547 43.989 97.8064 44.11 97.3224 44.11C96.4424 44.11 95.9364 43.8387 95.8044 43.296C95.7091 43.5747 95.5661 43.78 95.3754 43.912C95.1847 44.044 94.9061 44.11 94.5394 44.11C93.4541 44.11 92.9114 43.6663 92.9114 42.779C92.9114 42.2583 93.1167 41.9027 93.5274 41.712C93.9454 41.514 94.5834 41.415 95.4414 41.415ZM95.0014 42.768C95.0014 43.1493 95.0197 43.395 95.0564 43.505C95.1004 43.615 95.1774 43.67 95.2874 43.67C95.4047 43.67 95.5111 43.5783 95.6064 43.395C95.7091 43.2043 95.7604 42.944 95.7604 42.614V41.591H95.6834C95.2287 41.591 95.0014 41.9247 95.0014 42.592V42.768ZM102.513 39.072C102.241 39.072 102.003 39.248 101.798 39.6C101.592 39.952 101.49 40.37 101.49 40.854V43.802H102.271V44H98.8385V43.802H99.4435V38.962H98.8385V38.764H101.49V39.82C101.585 39.446 101.768 39.16 102.04 38.962C102.311 38.7567 102.619 38.654 102.964 38.654C103.308 38.654 103.587 38.753 103.8 38.951C104.02 39.1417 104.13 39.4167 104.13 39.776C104.13 40.128 104.049 40.3993 103.888 40.59C103.726 40.7807 103.477 40.876 103.14 40.876C102.81 40.876 102.564 40.766 102.403 40.546C102.249 40.326 102.23 40.0217 102.348 39.633H102.744C102.927 39.259 102.85 39.072 102.513 39.072ZM106.764 41.415H107.083V40.568C107.083 39.8713 107.042 39.4057 106.962 39.171C106.888 38.929 106.742 38.808 106.522 38.808C106.39 38.808 106.269 38.8447 106.159 38.918C106.056 38.984 106.005 39.0793 106.005 39.204C106.005 39.3213 106.027 39.4423 106.071 39.567H106.346C106.404 39.721 106.434 39.908 106.434 40.128C106.434 40.3407 106.342 40.5277 106.159 40.689C105.975 40.843 105.744 40.92 105.466 40.92C104.835 40.92 104.52 40.6157 104.52 40.007C104.52 39.105 105.286 38.654 106.819 38.654C107.691 38.654 108.293 38.8043 108.623 39.105C108.96 39.3983 109.129 39.941 109.129 40.733V42.966C109.129 43.3473 109.235 43.538 109.448 43.538C109.697 43.538 109.844 43.1603 109.888 42.405L110.053 42.416C110.023 43.0613 109.902 43.505 109.69 43.747C109.477 43.989 109.129 44.11 108.645 44.11C107.765 44.11 107.259 43.8387 107.127 43.296C107.031 43.5747 106.888 43.78 106.698 43.912C106.507 44.044 106.228 44.11 105.862 44.11C104.776 44.11 104.234 43.6663 104.234 42.779C104.234 42.2583 104.439 41.9027 104.85 41.712C105.268 41.514 105.906 41.415 106.764 41.415ZM106.324 42.768C106.324 43.1493 106.342 43.395 106.379 43.505C106.423 43.615 106.5 43.67 106.61 43.67C106.727 43.67 106.833 43.5783 106.929 43.395C107.031 43.2043 107.083 42.944 107.083 42.614V41.591H107.006C106.551 41.591 106.324 41.9247 106.324 42.592V42.768ZM115.69 41.833V40.898C115.69 40.1867 115.65 39.6697 115.569 39.347C115.496 39.017 115.32 38.852 115.041 38.852C114.88 38.852 114.748 38.8997 114.645 38.995C114.55 39.083 114.48 39.2333 114.436 39.446C114.37 39.776 114.337 40.2783 114.337 40.953V41.811C114.337 42.6103 114.359 43.0907 114.403 43.252C114.455 43.4133 114.506 43.5453 114.557 43.648C114.638 43.824 114.796 43.912 115.03 43.912C115.316 43.912 115.503 43.747 115.591 43.417C115.657 43.1823 115.69 42.6543 115.69 41.833ZM115.008 44.11C114.092 44.11 113.399 43.8753 112.929 43.406C112.46 42.9367 112.225 42.2657 112.225 41.393C112.225 40.513 112.475 39.8383 112.973 39.369C113.479 38.8923 114.187 38.654 115.096 38.654C116.006 38.654 116.684 38.874 117.131 39.314C117.579 39.7467 117.802 40.4103 117.802 41.305C117.802 43.175 116.871 44.11 115.008 44.11ZM82.6823 53.764H85.3333V54.776C85.5753 54.028 86.1069 53.654 86.9283 53.654C87.7569 53.654 88.2593 54.05 88.4353 54.842C88.6919 54.05 89.2309 53.654 90.0523 53.654C91.1303 53.654 91.6693 54.2663 91.6693 55.491V58.802H92.2853V59H89.2383V58.802H89.6233V55.227C89.6233 54.6697 89.5756 54.3433 89.4803 54.248C89.4363 54.204 89.3776 54.182 89.3043 54.182C89.0916 54.182 88.9046 54.325 88.7433 54.611C88.5819 54.897 88.5013 55.26 88.5013 55.7V58.802H88.8973V59H86.0703V58.802H86.4553V55.227C86.4553 54.6697 86.4076 54.3433 86.3123 54.248C86.2683 54.204 86.2096 54.182 86.1363 54.182C85.9309 54.182 85.7439 54.3397 85.5753 54.655C85.4139 54.963 85.3333 55.3333 85.3333 55.766V58.802H85.7293V59H82.6823V58.802H83.2873V53.962H82.6823V53.764ZM98.6671 59H96.1591L96.0381 58.197C95.9207 58.4903 95.7447 58.7177 95.5101 58.879C95.2827 59.033 94.9417 59.11 94.4871 59.11C93.3504 59.11 92.7821 58.4977 92.7821 57.273V53.962H92.1661V53.764H94.8281V57.537C94.8281 57.977 94.8574 58.2667 94.9161 58.406C94.9821 58.5453 95.1067 58.615 95.2901 58.615C95.4807 58.615 95.6494 58.5013 95.7961 58.274C95.9427 58.0467 96.0161 57.7313 96.0161 57.328V53.962H95.5101V53.764H98.0621V58.802H98.6671V59ZM98.9142 53.764H101.565V54.776C101.683 54.4387 101.862 54.1673 102.104 53.962C102.346 53.7567 102.713 53.654 103.204 53.654C104.341 53.654 104.909 54.2663 104.909 55.491V58.802H105.525V59H102.412V58.802H102.863V55.227C102.863 54.787 102.834 54.5047 102.775 54.38C102.717 54.248 102.61 54.182 102.456 54.182C102.222 54.182 102.013 54.336 101.829 54.644C101.653 54.952 101.565 55.326 101.565 55.766V58.802H102.038V59H98.9142V58.802H99.5192V53.962H98.9142V53.764ZM107.904 56.723C107.904 57.493 107.944 58.0063 108.025 58.263C108.105 58.5123 108.252 58.637 108.465 58.637C108.685 58.637 108.872 58.5417 109.026 58.351C109.187 58.1603 109.268 57.878 109.268 57.504V55.106C109.268 54.7907 109.205 54.523 109.081 54.303C108.956 54.083 108.773 53.973 108.531 53.973C108.289 53.973 108.124 54.1343 108.036 54.457C107.948 54.7797 107.904 55.3443 107.904 56.151V56.723ZM109.411 59L109.29 58.23C109.04 58.8167 108.534 59.11 107.772 59.11C107.141 59.11 106.65 58.8827 106.298 58.428C105.953 57.9733 105.781 57.295 105.781 56.393C105.781 54.567 106.507 53.654 107.959 53.654C108.604 53.654 109.029 53.8337 109.235 54.193V50.948H108.564V50.75H111.314V58.802H111.853V59H109.411ZM115.69 56.833V55.898C115.69 55.1867 115.65 54.6697 115.569 54.347C115.496 54.017 115.32 53.852 115.041 53.852C114.88 53.852 114.748 53.8997 114.645 53.995C114.55 54.083 114.48 54.2333 114.436 54.446C114.37 54.776 114.337 55.2783 114.337 55.953V56.811C114.337 57.6103 114.359 58.0907 114.403 58.252C114.455 58.4133 114.506 58.5453 114.557 58.648C114.638 58.824 114.796 58.912 115.03 58.912C115.316 58.912 115.503 58.747 115.591 58.417C115.657 58.1823 115.69 57.6543 115.69 56.833ZM115.008 59.11C114.092 59.11 113.399 58.8753 112.929 58.406C112.46 57.9367 112.225 57.2657 112.225 56.393C112.225 55.513 112.475 54.8383 112.973 54.369C113.479 53.8923 114.187 53.654 115.096 53.654C116.006 53.654 116.684 53.874 117.131 54.314C117.579 54.7467 117.802 55.4103 117.802 56.305C117.802 58.175 116.871 59.11 115.008 59.11Z" fill="black"/>
<path d="M236.431 39.7309C236.591 36.0398 237.003 30.2863 237.194 25.2393C237.289 22.7136 237.33 20.3651 237.255 18.5081C237.121 16.6101 237.124 15.3858 236.383 14.3794C235.588 13.4692 234.742 12.8748 233.849 12.6015C231.118 11.838 228.999 13.8841 227.379 15.6141C225.266 17.9463 214.075 27.2297 210.633 35.3525C210.215 36.3491 209.837 37.3774 209.516 38.4224C208.411 42.0364 207.966 45.8694 209.018 49.2715C210.061 52.6817 212.716 55.5326 217.316 56.9224C217.407 56.9502 217.498 56.9776 217.591 57.0046C226.826 59.6215 233.439 51.4256 235.605 44.2616C236.084 42.6968 236.368 41.157 236.431 39.7309ZM218.165 55.0365C218.082 55.0124 218 54.9877 217.918 54.9625C209.819 52.4148 209.423 45.8427 211.399 39C211.697 38.0295 212.051 37.0666 212.444 36.1304C215.485 28.8053 226.448 19.5081 228.795 17.0067C230.37 15.2722 231.975 14.0967 233.247 14.5612C233.722 14.7067 234.276 15.052 234.904 15.7689C234.907 15.7674 234.909 15.7669 234.949 15.8964C235.369 17.0202 235.402 21.4335 235.181 26.1503C234.979 30.9143 234.609 36.1748 234.456 39.6851C234.404 40.8953 234.156 42.2704 233.721 43.6839C231.648 50.3375 225.827 57.3239 218.165 55.0365Z" fill="#231F20"/>
<path d="M226.12 30.3247C224.105 29.7307 219.468 30.7459 216.775 35.7449C216.36 36.5219 215.968 37.4047 215.679 38.3419C215.172 39.9995 214.986 41.8506 215.684 43.542C216.382 45.2352 217.964 46.6734 220.736 47.5182C220.77 47.5287 220.805 47.5394 220.839 47.5498C226.167 49.1577 229.266 45.2351 230.322 41.7323C230.704 40.4831 230.859 39.2662 230.8 38.2751C230.526 34.5747 228.182 31.028 226.12 30.3247ZM221.133 46.5679C221.101 46.558 221.069 46.548 221.037 46.5382C215.911 44.8996 215.756 41.7019 216.621 38.6308C216.884 37.7754 217.25 36.951 217.638 36.2221C220.049 31.6412 224.391 30.8415 225.819 31.3043C227.201 31.6577 229.662 35.0893 229.814 38.3626C229.866 39.1898 229.73 40.3072 229.38 41.4432C228.335 44.6957 225.844 47.9566 221.133 46.5679Z" fill="#231F20"/>
<path d="M227.599 42.0171C227.504 41.9632 227.384 42.0009 227.33 42.0998C226.144 44.2856 223.623 45.386 221.284 44.6677C221.189 44.6386 221.095 44.6064 221 44.5714C220.898 44.5333 220.784 44.5892 220.745 44.695C220.706 44.8015 220.757 44.9182 220.859 44.9563C220.96 44.9936 221.062 45.0287 221.164 45.06C223.682 45.832 226.395 44.6497 227.674 42.2937C227.728 42.1942 227.694 42.0703 227.599 42.0171Z" fill="#231F20"/>
<path d="M228.074 38.2718C227.967 38.2951 227.896 38.4028 227.916 38.5134C228.054 39.2839 228.027 40.096 227.811 40.8966C227.781 41.006 227.842 41.1172 227.947 41.1454C228.053 41.1732 228.162 41.1076 228.191 40.9985C228.425 40.136 228.454 39.2602 228.305 38.4309C228.285 38.3204 228.182 38.249 228.074 38.2718Z" fill="#231F20"/>
</svg>
